# xmcd
#
# Track frame offsets:
#	150
#	15892
#	32507
#	42762
#	56697
#	66082
#	79275
#	94782
#	105070
#	116865
#	126950
#	141112
#	150575
#	164345
#	178782
#	187837
#	200257
#	207110
#	213972
#	222658
#	242724
#
# Disc length: 3877 seconds
#
# Revision: 2
# Processed by: cddbd v1.5.2PL0 Copyright (c) Steve Scherf et al.
# Submitted via: EasyCDDAExtractor 15.2.1.1
#
DISCID=1c0f2315
DTITLE=Various Artist - Lasten Ikivihreät Namipalat
DYEAR=2004
DGENRE=Children
TTITLE0=Kirsi Poutanen - Kirsi Poutanen - Lähdetään Korkeasaareen
TTITLE1=Kai Hyttinen - Kai Hyttinen - Sairas Karhunpoika
TTITLE2=Kujakissat - Kujakissat - Jörö-Jukka-Rock
TTITLE3=Kari Salmelainen - Kari Salmelainen - Jänöjussin Mäenlasku
TTITLE4=Hot-Rokkarit - Hot-Rokkarit - Villahousurock
TTITLE5=Kojo, Kim, Carola - Kojo, Kim, Carola - Pienet Sammakot - Täti Monika
TTITLE6=Jukka and Lapset - JUkka and Lapset - Mörkö Se Lähti Piiriin
TTITLE7=Pepe and Kermiitit - Pepe and Kermiitit - Minä Soitan Harmonikkaa
TTITLE8=Kujakissat - Kujakissat - Kapteeni Katsoi Horisonttihin
TTITLE9=Olli Oivanen - Olli Oivanen - Kapteeni Kalle Ja Muut Kaverit
TTITLE10=Satu Vuorjoki - Satu Vuorjoki - Liisa Ihmemaassa
TTITLE11=Kermiitit - Kermiitit - Mörri-Möykky Tanssii
TTITLE12=Ritva-Leena Kopra - Ritva-Leena Kopra - Iha-Haa
TTITLE13=Kisu, Vicky, Kim - Kisu, Vicky, Kim - Neljä Kissanpoikaa
TTITLE14=Myllypuron Lapset - Myllypuron Lapset - Kissa Kehrääväinen
TTITLE15=Edu Kettunen - Edu Kettunen - Unihiekkaa
TTITLE16=Lapsikuoro - Lapsikuoro - Elefanttimarssi
TTITLE17=Karaoke - Karaoke - Elefanttimarssi
TTITLE18=Lapsikuoro - Lapsikuoro - Piiri Pieni Pyörii
TTITLE19=Karaoke - Karaoke - Piiri Pieni Pyörii
TTITLE20=Data - DATA
EXTD=Lastenpoppia
EXTT0=
EXTT1=
EXTT2=
EXTT3=
EXTT4=
EXTT5=
EXTT6=
EXTT7=
EXTT8=
EXTT9=
EXTT10=
EXTT11=
EXTT12=
EXTT13=
EXTT14=
EXTT15=
EXTT16=
EXTT17=
EXTT18=
EXTT19=
EXTT20=
PLAYORDER=
